<svg width="25" height="26" viewBox="0 0 25 26" fill="none" xmlns="http://www.w3.org/2000/svg">
<path d="M12.5524 0.90332C5.69113 0.90332 0.107258 6.28155 0.104839 12.8912C0.103226 15.0049 0.677419 17.0678 1.76613 18.8848L0 25.0969L6.59919 23.4299C8.43485 24.3902 10.4759 24.891 12.5476 24.8896H12.5524C19.4137 24.8896 24.9976 19.5106 25 12.9009C25.0016 9.69929 23.7081 6.68558 21.3573 4.42026C19.0073 2.15413 15.8823 0.904127 12.5524 0.90332ZM12.5524 22.8646H12.5484C10.6919 22.8646 8.87097 22.384 7.28226 21.4759L6.90323 21.2598L2.98871 22.2485L4.03387 18.5711L3.7879 18.1945C2.75476 16.6188 2.20478 14.7754 2.20564 12.8912C2.20806 7.39687 6.85 2.92832 12.5565 2.92832C15.3194 2.92913 17.9169 3.96703 19.871 5.85009C21.825 7.73316 22.9 10.2372 22.8984 12.9001C22.896 18.3944 18.2548 22.8646 12.5516 22.8646H12.5524ZM18.2274 15.4009C17.9161 15.2517 16.3871 14.5267 16.1016 14.4259C15.8169 14.3267 15.6097 14.2751 15.4024 14.5751C15.196 14.8751 14.5992 15.5501 14.4185 15.7493C14.2363 15.9493 14.0548 15.9735 13.7435 15.8243C13.4323 15.6743 12.4298 15.3582 11.2427 14.3372C10.3177 13.5436 9.69355 12.563 9.5121 12.2622C9.33064 11.963 9.49274 11.8009 9.64839 11.6517C9.7879 11.5186 9.95968 11.3025 10.1145 11.1275C10.2694 10.9525 10.321 10.8275 10.4258 10.6275C10.529 10.4283 10.4774 10.2525 10.3992 10.1033C10.321 9.95251 9.7 8.47832 9.43952 7.87913C9.1879 7.29526 8.93145 7.37348 8.74032 7.3638C8.55887 7.35574 8.35242 7.35332 8.14355 7.35332C7.9379 7.35332 7.6 7.42832 7.31452 7.72832C7.02984 8.02832 6.22581 8.75251 6.22581 10.2267C6.22581 11.7017 7.34032 13.1259 7.49597 13.3259C7.65161 13.5251 9.68952 16.5517 12.8097 17.8501C13.5516 18.1574 14.1306 18.342 14.5831 18.4807C15.3282 18.709 16.0065 18.6759 16.5419 18.5993C17.1387 18.513 18.3823 17.8751 18.6403 17.1759C18.9 16.4767 18.9 15.8767 18.8226 15.7517C18.7468 15.6267 18.5387 15.5517 18.2274 15.4009Z" fill="#00373E"/>
</svg>
