<svg width="92" height="44" viewBox="0 0 92 44" fill="none" xmlns="http://www.w3.org/2000/svg">
<path d="M81.5335 13.7819C83.944 11.3191 86.615 12.0435 86.615 14.4322C86.615 16.7636 83.878 19.2803 80.5773 21.231C80.2574 21.4163 79.8782 21.632 79.4957 21.824C79.3671 21.2378 79.2945 20.5875 79.2945 19.8632C79.2945 17.872 80.1222 15.2239 81.5335 13.7819ZM68.6766 38.9222C65.4747 42.1936 61.3826 38.0227 66.1573 33.1442C67.2389 32.0391 69.013 30.8229 70.8596 29.7145C71.9115 32.3828 71.0772 36.4594 68.6766 38.9222ZM48.2816 25.8231C45.825 25.8231 44.2356 22.8145 44.7269 19.0984C45.2084 15.3823 47.5925 12.3737 50.0458 12.3737C52.3178 12.3737 53.8478 14.9578 53.673 18.2932C53.6104 18.775 53.5543 19.2399 53.5082 19.688C52.8618 23.1211 50.5998 25.8231 48.2816 25.8231ZM15.8541 24.5867C15.0528 25.4054 14.0735 25.84 13.0809 25.84C12.1543 25.84 11.353 25.4121 10.6902 24.7349C8.41827 22.4136 8.61612 16.7164 11.5344 13.7247C12.3621 12.879 13.3612 12.3871 14.39 12.3871C15.31 12.3871 16.1179 12.8049 16.7807 13.4821C18.9208 15.6686 19.0461 21.3254 15.8541 24.5867ZM91.8712 25.8029C91.8712 25.8029 90.961 24.5025 90.6808 24.1318C90.4895 23.8893 90.2521 23.5928 89.6256 24.0308C88.2439 24.9775 86.6875 25.8434 84.7684 25.8434C83.3043 25.8434 82.0216 25.4626 81.0686 24.6372C81.4676 24.4519 81.8864 24.2464 82.315 24.0139C84.5804 22.7606 86.4699 21.1704 87.38 20.2405C91.7887 15.736 90.4071 9.01803 85.0355 9.01803C79.9606 9.01803 75.9509 14.0717 75.9509 19.6846C75.9509 20.5303 76.0498 21.7364 76.4059 23.02C76.1059 23.1683 74.0977 24.1622 71.6872 25.5199C69.4218 23.7815 65.8869 24.5631 65.8869 24.5631C69.1679 19.8059 74.1076 12.3737 74.5264 11.7605C74.8264 11.3225 74.7803 10.8879 74.4901 10.2006C74.1175 9.37515 73.7449 9.22354 73.2337 9.22354H62.9785C62.6422 9.22354 62.3784 9.38189 62.2795 9.77271C62.1872 10.1534 61.9695 11.4808 61.9332 11.9357C61.8871 12.3905 62.3059 12.6701 62.7411 12.6701H70.1704L63.4501 22.4911C63.4039 22.5282 63.3578 22.5753 63.3215 22.6393C62.3487 24.0779 60.8484 26.096 59.0479 26.096C57.9301 26.096 56.5484 25.2773 56.5484 22.6023C56.5484 19.9811 57.5839 14.4457 58.339 10.1332C58.4214 9.66827 58.2664 9.21344 57.5377 9.21344H55.7208C55.302 9.21344 55.0646 9.47286 55.0019 9.83672C54.8931 10.4971 54.7843 11.1473 54.6755 11.7706C53.7752 10.0153 52.3375 9.0214 50.2568 9.0214C48.3278 9.0214 46.4482 9.75586 44.9116 11.3158C41.0733 15.2374 41.8021 21.6286 38.4914 25.0112C37.0636 26.47 35.4445 26.0253 35.4445 23.1548C35.4445 19.8767 36.6712 16.2246 38.0825 12.7577C38.3265 12.1446 38.0627 11.6325 37.8022 11.2349C37.4296 10.679 37.2845 10.3791 36.6118 10.3791C35.5665 10.3791 33.8947 11.0563 30.5477 11.0563C29.8388 11.0563 29.1562 11.0294 28.5462 10.9822C28.5824 10.4701 28.5923 10.1265 28.6022 9.99844C28.622 9.51666 28.4571 9.21007 27.9559 9.21007H26.2478C25.6279 9.21007 25.4762 9.50655 25.4036 9.99844C25.1135 12.0873 24.5595 19.7621 20.7937 23.6096C20.3585 24.0544 20.0947 24.1959 20.0947 24.1959C21.0312 22.3193 21.539 19.8565 21.539 17.9057C21.539 12.4141 18.3569 9.01466 14.3636 9.01466C13.1436 9.01466 11.8543 9.41558 10.6441 10.1837C11.2079 6.83822 11.7257 3.70831 11.907 2.65041C12.062 1.7576 11.7421 1.29266 11.5146 0.922062C11.1288 0.312253 10.7892 0.0427246 10.2814 0.0427246H4.38873C4.05239 0.0427246 3.79848 0.2853 3.71605 0.66601C3.61712 1.11073 3.40608 2.28318 3.3797 2.82224C3.35992 3.29728 3.67977 3.47248 4.05239 3.47248H8.36221C7.66974 7.79167 6.36063 16.1639 5.96164 18.2629C5.46372 20.9379 3.59734 24.2161 0.461423 25.3784C0.0690217 25.5267 -0.0925554 25.8905 0.0525342 26.3184C0.197624 26.7463 0.735115 27.8615 0.896692 28.1478C1.06157 28.4443 1.42429 28.6397 1.77053 28.5184C3.39949 27.9322 4.88995 26.9855 6.07046 25.7861C6.36063 25.4896 6.64422 25.1527 6.91461 24.7922C8.32264 28.0265 11.1882 29.2057 14.1262 29.2057C17.4435 29.2057 21.0279 28.0265 23.5373 25.4525C26.4753 22.4608 27.702 17.5014 28.2197 13.9875C28.9484 14.0885 29.7761 14.1728 30.5642 14.1728C32.5823 14.1728 34.2739 13.7348 34.2739 13.7348C34.2739 13.7348 32.2393 19.2534 32.2393 23.3233C32.2393 27.912 34.386 29.2125 36.7668 29.2125C39.2135 29.2125 40.9315 27.3359 42.1582 25.0146C42.478 25.7389 42.9496 26.6048 43.5959 27.2618C44.7039 28.3938 46.0789 29.2125 48.0607 29.2125C50.3261 29.2125 52.2716 27.8749 53.6532 25.8231C53.8973 26.6856 54.2798 27.4134 54.7975 27.9423C55.4965 28.6566 56.7793 29.2158 58.3884 29.2158C61.1517 29.2158 62.7543 27.0967 67.0542 27.0967C67.5983 27.0967 68.0897 27.1809 68.5348 27.3392C66.5629 28.5656 64.6899 29.8863 63.5424 31.0554C59.9976 34.6772 59.8327 39.4444 62.1608 41.823C64.9801 44.7036 68.9998 43.2616 71.5092 40.6978C74.4472 37.6959 75.3013 32.0223 73.5998 28.1377C75.6541 27.0327 77.3721 26.214 77.781 26.0185C79.0637 27.8109 81.1906 29.2158 84.6991 29.2158C87.2085 29.2158 89.7377 28.3062 91.7096 26.7833C92.0261 26.5677 92.0888 26.1196 91.8712 25.8029Z" fill="#212123"/>
</svg>
