<svg width="145" height="23" viewBox="0 0 145 23" fill="none" xmlns="http://www.w3.org/2000/svg">
<path d="M10.8308 0.849428C16.7997 0.849428 21.6615 5.75275 21.6615 11.8212C21.6615 17.8897 16.7997 22.793 10.8308 22.793C4.86181 22.793 0 17.9382 0 11.8212C0 5.70421 4.86181 0.849428 10.8308 0.849428ZM95.744 0.606689V19.8316C95.744 21.288 96.3216 21.6764 97.4288 21.9677L97.4769 22.2104H91.3636V19.8316C90.6415 21.5793 89.1493 22.6474 87.2238 22.6474C83.9505 22.6474 81.7844 19.6374 81.7844 15.171C81.7844 12.6465 82.5064 10.5104 83.8542 8.90836C85.1539 7.35483 86.935 6.52952 88.9086 6.52952C89.8713 6.52952 90.6896 6.72371 91.3636 7.16064V4.53906C91.3636 3.95649 91.2192 3.5681 90.9303 3.27682C90.5452 2.93698 89.9195 2.79134 88.9567 2.88843H88.9086V2.6457L95.744 0.606689ZM118.946 6.57807V19.8316C118.946 21.288 119.524 21.6764 120.631 21.9677V22.2104H114.517V19.7831C113.795 21.5308 112.207 22.6474 110.426 22.6474C108.308 22.6474 106.96 21.6764 106.43 19.7831L106.334 19.2976C106.238 18.8121 106.19 18.3266 106.19 17.8411V10.7532C106.19 9.19965 105.853 8.71417 104.505 8.61707H104.457V8.37433L110.57 6.57807V17.7441C110.57 19.3947 111.292 20.3171 112.64 20.3171C113.458 20.3171 114.132 19.8802 114.517 19.1519V10.7532C114.517 9.1511 114.229 8.66562 113.121 8.56852H113.073V8.32579L118.946 6.57807ZM74.8045 6.52952C76.4412 6.52952 78.0297 7.11209 79.0887 8.13159C80.2921 9.29674 80.9179 10.9959 80.966 13.2291V13.2777H71.7719C71.5794 16.4818 73.553 19.1034 76.1524 19.2005C78.0297 19.3461 79.6663 18.181 80.5809 16.2876L80.8216 16.3847C80.2921 19.9287 78.2222 22.5988 74.612 22.5988C70.5204 22.5988 68.2098 19.1519 68.1135 14.8312V13.7146C68.3061 11.8212 68.8837 10.1221 69.8946 8.85981C70.5204 8.08305 71.2424 7.50047 72.1089 7.11209C72.8309 6.72371 73.8899 6.52952 74.7564 6.52952H74.8045ZM138.489 6.57807C141.089 6.57807 142.677 8.22869 142.677 11.0445V20.0743C142.677 21.1424 143.159 21.6764 144.362 21.9677H144.41V22.2104H138.249V11.1901C138.249 9.44238 137.623 8.56852 136.323 8.56852C135.264 8.56852 134.735 9.34529 134.446 10.025C134.494 10.3648 134.542 10.7046 134.542 11.0445V20.22C134.542 21.3366 134.879 21.725 135.842 21.9677H135.89V22.2104H130.162V11.1901C130.162 9.44238 129.488 8.56852 128.236 8.56852C127.225 8.56852 126.696 9.29674 126.455 9.87931V20.2685C126.455 21.3851 126.792 21.7735 127.755 22.0163H127.803V22.259H122.075V10.7046C122.075 9.1511 121.69 8.66562 120.39 8.56852H120.342V8.32579L126.455 6.62661V9.19965C127.081 7.54902 128.525 6.57807 130.354 6.57807C132.424 6.57807 133.868 7.59757 134.35 9.44238C134.975 7.69466 136.564 6.57807 138.489 6.57807ZM50.688 1.57764L56.4163 15.1225L62.1446 1.57764H68.3061L68.2579 1.82038L68.188 1.83608C67.1265 2.08009 66.5731 2.48043 66.5731 3.81084V20.3171C66.6694 21.3851 67.2471 21.725 68.2579 21.9677H68.3061V22.2104H60.4598V21.9677H60.5079C61.5188 21.725 62.0964 21.3851 62.1927 20.3171V4.24777L54.6352 22.1619H54.202L46.8371 4.73325V19.9287C46.8371 21.288 47.4147 21.6764 48.5219 21.9192H48.57V22.1619H44.0451V21.9192H44.0933C45.2004 21.6764 45.7781 21.288 45.7781 19.9287V3.81084C45.7781 2.4515 45.2004 2.06312 44.0933 1.82038H44.0451V1.57764H50.688ZM103.205 6.57807V19.8316L103.206 19.9213C103.23 21.3042 103.806 21.6825 104.89 21.9677L104.938 22.2104H98.8248V10.7532C98.8248 9.19965 98.4878 8.71417 97.14 8.61707H97.0919V8.37433L103.205 6.57807ZM28.16 1.48055C31.0963 1.48055 33.5513 6.14114 33.5513 11.8212C33.5513 17.5499 31.1445 22.1619 28.16 22.1619C25.1755 22.1619 22.7687 17.5499 22.7687 11.8212C22.7687 6.09259 25.1755 1.48055 28.16 1.48055ZM36.4395 2.5486C37.5467 2.5486 38.365 6.72371 38.365 11.8212C38.365 16.9187 37.4985 21.0938 36.4395 21.0938C35.3911 21.0938 34.5314 17.0018 34.5143 11.9739L34.5141 11.8212C34.5141 6.72371 35.3805 2.5486 36.4395 2.5486ZM89.6306 7.40338C87.7052 7.40338 86.5018 9.97641 86.5018 13.9573C86.5018 15.8507 86.8387 17.5013 87.4164 18.6179C87.9459 19.686 88.716 20.2685 89.5825 20.2685C90.449 20.2685 91.0747 19.8802 91.3636 19.1519V8.47143C91.0266 7.79176 90.4008 7.40338 89.6306 7.40338ZM74.7564 7.45193C73.0235 7.45193 72.0126 9.53948 71.8682 12.4523V12.5009H77.1151C77.2114 10.2191 76.8263 8.71417 76.1042 7.98595C75.7191 7.64612 75.2859 7.45193 74.7564 7.45193ZM100.847 0.752333C102.242 0.752333 103.301 1.82038 103.301 3.22827C103.301 4.63615 102.242 5.70421 100.847 5.70421C99.4505 5.70421 98.3915 4.63615 98.3915 3.22827C98.3915 1.82038 99.4505 0.752333 100.847 0.752333Z" fill="black"/>
</svg>
