<svg width="129" height="35" viewBox="0 0 129 35" fill="none" xmlns="http://www.w3.org/2000/svg">
<path d="M44.9356 29.0719V14.3926H45.1949L55.7896 29.0719H59.1236V7.5151H55.4192V22.1574H55.1598L44.5652 7.5151H41.2312V29.0719H44.9356ZM69.6071 29.4047C74.497 29.4047 77.4976 26.2248 77.4976 20.9003C77.4976 15.6128 74.497 12.3959 69.6071 12.3959C64.7543 12.3959 61.7167 15.6128 61.7167 20.9003C61.7537 26.2248 64.7173 29.4047 69.6071 29.4047ZM69.6071 26.2987C67.014 26.2987 65.5322 24.339 65.5322 20.9003C65.5322 17.4985 67.014 15.5018 69.6071 15.5018C72.2002 15.5018 73.682 17.4985 73.682 20.9003C73.682 24.339 72.2002 26.2987 69.6071 26.2987ZM80.8686 8.73529V12.8396H78.2755V15.7976H80.8686V24.7088C80.8686 27.8887 82.3504 29.1459 86.1289 29.1459C86.8327 29.1459 87.5366 29.0719 88.0922 28.961V26.0769C87.6477 26.1138 87.3513 26.1508 86.8327 26.1508C85.2769 26.1508 84.573 25.4483 84.573 23.8214V15.7976H88.0922V12.8396H84.573V8.73529H80.8686ZM90.3149 29.0719H94.0193V12.7287H90.3149V29.0719ZM92.1671 10.0294C93.3896 10.0294 94.3898 9.03109 94.3898 7.8109C94.3898 6.55372 93.3896 5.55539 92.1671 5.55539C90.9446 5.55539 89.9444 6.55372 89.9444 7.8109C89.9444 9.03109 90.9446 10.0294 92.1671 10.0294ZM104.169 29.4047C109.059 29.4047 112.06 26.2248 112.06 20.9003C112.06 15.6128 109.059 12.3959 104.169 12.3959C99.3166 12.3959 96.279 15.6128 96.279 20.9003C96.279 26.2248 99.2426 29.4047 104.169 29.4047ZM104.169 26.2987C101.576 26.2987 100.095 24.339 100.095 20.9003C100.095 17.4985 101.576 15.5018 104.169 15.5018C106.726 15.5018 108.244 17.4985 108.244 20.9003C108.207 24.339 106.726 26.2987 104.169 26.2987ZM114.245 29.0719H117.95V19.5692C117.95 17.1657 119.358 15.6497 121.543 15.6497C123.803 15.6497 124.84 16.9069 124.84 19.3843V29.0719H128.545V18.4969C128.545 14.5774 126.544 12.3959 122.914 12.3959C120.469 12.3959 118.839 13.5052 118.061 15.3539H117.802V12.7287H114.208C114.245 12.7287 114.245 29.0719 114.245 29.0719Z" fill="black"/>
<path fill-rule="evenodd" clip-rule="evenodd" d="M5.71206 6.13536C6.79023 7.01259 7.18021 6.94333 9.19893 6.80482L28.2162 5.65058C28.6291 5.65058 28.285 5.23505 28.1474 5.18888L24.9816 2.90348C24.3852 2.44178 23.5594 1.88774 22.0224 2.02625L3.62452 3.38826C2.95926 3.45751 2.82162 3.80379 3.0969 4.05772L5.71206 6.13536ZM6.85905 10.5907V30.7208C6.85905 31.8058 7.38667 32.1982 8.60249 32.129L29.5008 30.9054C30.7166 30.8362 30.8543 30.0975 30.8543 29.2203V9.22874C30.8543 8.35151 30.5102 7.86673 29.7761 7.93598L7.93723 9.22874C7.13433 9.29799 6.85905 9.71352 6.85905 10.5907ZM27.4821 11.6757C27.6197 12.2759 27.4821 12.8992 26.8857 12.9685L25.8763 13.1763V28.0429C25.0046 28.5046 24.2017 28.7816 23.5135 28.7816C22.4353 28.7816 22.16 28.4354 21.3571 27.4196L14.7733 17.0083V27.0734L16.8609 27.5351C16.8609 27.5351 16.8609 28.7586 15.1863 28.7586L10.5524 29.0356C10.4148 28.7586 10.5524 28.0891 11.0112 27.9506L12.227 27.6043V14.3074L10.5524 14.1689C10.4148 13.5687 10.7589 12.6915 11.6994 12.6222L16.6774 12.2759L23.5364 22.8027V13.4994L21.793 13.2917C21.6553 12.553 22.2059 11.9989 22.8712 11.9297L27.4821 11.6757ZM2.08754 1.54147L21.2424 0.133289C23.5823 -0.0744752 24.2017 0.0640347 25.6698 1.14902L31.7719 5.4659C32.7812 6.20462 33.1253 6.41238 33.1253 7.22035V30.9285C33.1253 32.406 32.5977 33.2832 30.7166 33.4217L8.48779 34.7837C7.06552 34.853 6.40026 34.6452 5.66618 33.6987L1.147 27.8121C0.3441 26.7271 0 25.9191 0 24.9726V3.89613C0 2.67263 0.550559 1.67998 2.08754 1.54147Z" fill="black"/>
</svg>
