<svg width="115" height="23" viewBox="0 0 115 23" fill="none" xmlns="http://www.w3.org/2000/svg">
<path d="M52.1067 7.99623V21.3946H49.0384V0.430205L62.7692 14.4219V0.951747H65.8393V21.9927L52.1067 7.99623ZM83.914 0.129395C77.9069 0.129395 73.0216 5.09831 73.0216 11.2106C73.0216 17.32 77.9069 22.2886 83.914 22.2886C89.9192 22.2886 94.8068 17.32 94.8068 11.2106C94.8068 5.09831 89.9192 0.129395 83.914 0.129395ZM83.914 19.1419C79.6562 19.1419 76.1896 15.5831 76.1896 11.2106C76.1896 6.83754 79.6562 3.27936 83.914 3.27936C88.1735 3.27936 91.6363 6.83754 91.6363 11.2106C91.6363 15.5832 88.1735 19.1419 83.914 19.1419ZM30.9534 0.129395C24.9465 0.129395 20.0609 5.09831 20.0609 11.2106C20.0609 17.32 24.9465 22.2886 30.9534 22.2886C36.9615 22.2886 41.8458 17.32 41.8458 11.2106C41.8458 5.09831 36.9617 0.129395 30.9534 0.129395ZM30.9534 19.1419C26.6939 19.1419 23.2315 15.5831 23.2315 11.2106C23.2315 6.83754 26.6939 3.27936 30.9534 3.27936C35.2115 3.27936 38.6775 6.83754 38.6775 11.2106C38.6776 15.5832 35.2115 19.1419 30.9534 19.1419ZM6.69995 12.7672L6.68753 12.7619C4.6367 12.0993 3.26395 11.4464 2.22969 10.6422C0.751271 9.49667 0 8.03476 0 6.29806C0 4.67166 0.74351 3.08668 2.03913 1.94076C3.36281 0.771838 5.18678 0.129395 7.17337 0.129395C11.3318 0.129395 13.7081 2.94784 13.8078 3.06874L11.2846 4.8028C10.7002 4.35869 9.16486 3.36172 7.17326 3.36172C4.67192 3.36172 3.17678 4.85446 3.17678 6.29806C3.17678 7.30514 3.7197 8.41252 7.64811 9.68428L7.66328 9.68681C9.70874 10.3474 11.0865 11.0023 12.1196 11.8042C13.5994 12.9523 14.3496 14.4142 14.3496 16.1511C14.3496 17.7774 13.6059 19.3649 12.3075 20.5084C10.9867 21.675 9.16331 22.3172 7.17457 22.3172C3.0175 22.3172 0.640945 19.5015 0.541484 19.3799L3.0667 17.646C3.65021 18.091 5.18559 19.0876 7.17445 19.0876C9.67686 19.0876 11.1732 17.5978 11.1732 16.1511C11.1735 15.144 10.6321 14.0364 6.69995 12.7672ZM107.22 12.7672L107.206 12.7619C105.157 12.0993 103.783 11.4464 102.75 10.6421C101.273 9.49631 100.518 8.0344 100.518 6.2977C100.518 4.6713 101.264 3.08644 102.561 1.94052C103.88 0.771838 105.702 0.129395 107.694 0.129395C111.852 0.129395 114.23 2.94784 114.331 3.06874L111.804 4.8028C111.221 4.35869 109.686 3.36172 107.694 3.36172C105.191 3.36172 103.695 4.85446 103.695 6.29806C103.695 7.30514 104.239 8.41252 108.17 9.68428L108.185 9.68681C110.233 10.3474 111.606 11.0023 112.641 11.8042C114.117 12.9523 114.869 14.4142 114.869 16.1511C114.869 17.7774 114.126 19.3649 112.831 20.5084C111.508 21.675 109.684 22.3172 107.694 22.3172C103.537 22.3172 101.163 19.5015 101.062 19.3799L103.586 17.646C104.171 18.091 105.702 19.0876 107.694 19.0876C110.199 19.0876 111.691 17.5978 111.691 16.1511C111.691 15.144 111.15 14.0364 107.22 12.7672V12.7672Z" fill="#222222"/>
</svg>
