<svg width="180" height="28" viewBox="0 0 180 28" fill="none" xmlns="http://www.w3.org/2000/svg">
<path fill-rule="evenodd" clip-rule="evenodd" d="M26.2179 2.85867C26.9321 3.03071 27.5585 3.4619 27.9776 4.06996C28.412 4.83696 28.6189 5.71369 28.5735 6.59583C28.5729 7.75523 28.3971 8.90777 28.0521 10.0137C27.6465 11.3046 27.139 12.5606 26.5345 13.7697L25.8269 15.3378L22.3448 6.81179C22.1746 6.40563 22.0315 5.98841 21.9166 5.56294C21.8254 5.23821 21.7692 4.90451 21.749 4.56762C21.7313 4.14168 21.8824 3.72614 22.1688 3.41262C22.4552 3.09909 22.8535 2.91331 23.2759 2.89623V2.6427H12.7738V2.89623C13.1311 2.96214 13.4765 3.08245 13.7979 3.25304C14.1259 3.47554 14.4023 3.76705 14.6079 4.10752C14.9707 4.68273 15.2822 5.28917 15.539 5.91976L17.1776 9.86349L14.2169 15.7697L9.80379 5.44088C9.6902 5.23449 9.59666 5.01752 9.52448 4.79298C9.48684 4.62961 9.46502 4.46294 9.45931 4.29532C9.45693 3.9809 9.56964 3.67665 9.77586 3.44084C10.0304 3.16378 10.3508 2.95692 10.7069 2.83989V2.60514H0V2.85867C0.870736 3.12682 1.65911 3.61487 2.29034 4.27654C3.11876 5.23757 3.79691 6.32048 4.30138 7.48786L11.0793 22.6806H11.3586L17.4662 10.4738L22.6893 22.6806H22.9686L29.1786 9.15925C29.8366 7.61935 30.6675 6.16065 31.6552 4.81176C32.3003 3.9663 33.1324 3.28462 34.0852 2.82111V2.57697H26.2179V2.85867Z" fill="#54575A"/>
<path d="M43.2931 16.2768C42.6228 18.0139 41.1424 18.8684 38.8055 18.8684C37.5374 18.9359 36.3032 18.4421 35.4259 17.5162C34.5301 16.4252 34.0747 15.0339 34.1503 13.6194H43.4607V13.441C43.4758 12.3154 43.1511 11.2118 42.5297 10.2766C41.8935 9.37319 41.033 8.6543 40.0345 8.1921C38.939 7.68857 37.7469 7.43527 36.5431 7.4503C35.2035 7.43277 33.8812 7.7557 32.6979 8.38929C31.5443 9.00618 30.5787 9.92801 29.9048 11.056C29.1862 12.2756 28.8246 13.6755 28.8621 15.0936C28.8341 16.407 29.1556 17.704 29.7931 18.8496C30.4211 19.9449 31.3359 20.8448 32.4372 21.4506C33.6157 22.0968 34.9414 22.4205 36.2824 22.3895C37.9902 22.47 39.6695 21.9266 41.0121 20.859C42.3587 19.6982 43.2637 18.1017 43.5724 16.3425L43.2931 16.2768ZM34.7555 9.26254C34.9743 8.44303 35.7109 7.87336 36.5524 7.87285C36.808 7.87399 37.0598 7.93507 37.2879 8.05125C37.5272 8.18413 37.7241 8.38275 37.8559 8.62403C38.0013 8.85699 38.12 9.10585 38.2097 9.36583C38.3288 9.73701 38.4008 10.1219 38.4238 10.5114C38.4238 10.9715 38.489 11.61 38.489 12.3894V13.103H34.1503C34.1539 12.3653 34.2005 11.6285 34.29 10.8964C34.3937 10.3259 34.5495 9.76642 34.7555 9.22498V9.26254Z" fill="#54575A"/>
<path d="M59.9119 20.0796C59.822 20.1587 59.705 20.1991 59.586 20.1923H59.2694C58.9661 20.1979 58.6839 20.0358 58.5339 19.7697C58.32 19.2406 58.2338 18.6677 58.2826 18.0983V11.2907C58.3656 10.2115 58.032 9.14175 57.3515 8.30474C56.6 7.59735 55.5805 7.25463 54.5584 7.36576C53.4283 7.38526 52.3039 7.53331 51.2067 7.80708C49.9605 8.08999 48.7513 8.51856 47.6036 9.0841C46.6677 9.47542 45.824 10.0609 45.127 10.8024C44.6397 11.3083 44.3517 11.9759 44.317 12.6804C44.2947 13.2302 44.5125 13.7621 44.9129 14.1358C45.3569 14.5118 45.9261 14.7032 46.505 14.6711C47.207 14.6515 47.8743 14.3588 48.367 13.8541C48.9626 13.2256 49.2698 12.3742 49.2143 11.5067V11.009C49.1686 10.2817 49.3834 9.56195 49.8195 8.98081C50.1681 8.53886 50.7028 8.28837 51.2626 8.30474C51.6623 8.2863 52.0574 8.39825 52.3891 8.62399C52.7452 8.90669 52.9868 9.31065 53.0688 9.76017C53.2309 10.5093 53.3028 11.2754 53.2829 12.0419V13.5349C51.8398 13.9574 50.4898 14.4175 49.4005 14.8495C48.3023 15.2703 47.2297 15.7563 46.1884 16.3049C45.0214 16.8227 44.2509 17.9682 44.2053 19.2533C44.1936 20.1423 44.6145 20.9807 45.3319 21.4975C46.1793 22.0922 47.1958 22.3922 48.2274 22.3519C49.2897 22.3709 50.3418 22.1394 51.2998 21.6759C52.0979 21.2472 52.7962 20.6518 53.3481 19.9294C53.413 20.6062 53.7131 21.2381 54.1953 21.7134C54.7078 22.17 55.3739 22.4119 56.0574 22.3895C56.8245 22.4006 57.5804 22.2027 58.2453 21.8167C58.9604 21.433 59.5686 20.8745 60.0143 20.1923L59.9119 20.0796ZM51.6163 20.3331C50.527 20.3331 49.9591 19.5819 49.9591 18.0514C49.9484 17.1334 50.2808 16.2451 50.8901 15.5631C51.5738 14.8814 52.4059 14.3701 53.3201 14.0701V18.3143C53.3581 18.852 53.1954 19.3845 52.8639 19.8073C52.5739 20.1723 52.1258 20.3719 51.6629 20.3425L51.6163 20.3331Z" fill="#54575A"/>
<path fill-rule="evenodd" clip-rule="evenodd" d="M59.9119 21.6477C60.4102 21.6531 60.8756 21.3971 61.1409 20.9717C61.4667 20.2088 61.601 19.3767 61.5319 18.5491V6.63337C61.6166 5.62557 61.4199 4.614 60.964 3.71313C60.6402 3.1624 60.0436 2.83451 59.4092 2.85865V2.53939C60.5823 2.24831 61.8112 1.96661 63.0123 1.60041C64.2133 1.23421 65.4143 0.933732 66.4664 0.548748V19.1219C66.417 19.7646 66.5258 20.4097 66.783 20.9998C67.0271 21.3492 67.4207 21.5616 67.8444 21.5726V21.8919H59.9119V21.6477Z" fill="#54575A"/>
<path fill-rule="evenodd" clip-rule="evenodd" d="M70.386 21.5726C69.7264 20.811 69.4065 19.8093 69.5015 18.8026V9.00898H67.3508L67.2856 8.76484C68.1441 8.33749 68.9582 7.82476 69.7156 7.2343C70.5927 6.53555 71.4289 5.78624 72.2201 4.99013C72.9962 4.20135 73.715 3.35721 74.3708 2.46426L74.6222 2.53938V7.76952H77.8622L77.1639 8.98081H74.6222V17.8354C74.5753 18.4849 74.7074 19.1349 75.0039 19.7134C75.2536 20.076 75.6649 20.2904 76.1025 20.2862C76.3404 20.2732 76.577 20.2418 76.8101 20.1923C77.0381 20.143 77.2535 20.0472 77.4432 19.9106L77.6201 20.1641C76.877 20.801 76.0723 21.361 75.2181 21.8355C74.4858 22.2112 73.6748 22.4044 72.8532 22.3989C71.9578 22.4528 71.0755 22.1607 70.386 21.582V21.5726Z" fill="#54575A"/>
<path fill-rule="evenodd" clip-rule="evenodd" d="M93.1781 21.0374C92.9454 20.3397 92.8505 19.6028 92.8988 18.8683V11.4316C92.8988 8.76487 91.8002 7.41274 89.6495 7.41274C89.0753 7.4006 88.5029 7.48307 87.955 7.65687C87.3576 7.87053 86.7885 8.15751 86.2605 8.51135C85.7019 8.90572 84.9943 9.45033 84.1843 10.117V0.61449C83.0485 0.971304 81.9312 1.32812 80.7581 1.64737C79.585 1.96663 78.3933 2.28588 77.0898 2.58636V2.90561C77.7242 2.88147 78.3209 3.20936 78.6447 3.76009C79.0822 4.66368 79.275 5.66794 79.2033 6.67094V18.3143C79.2788 19.2121 79.1349 20.1148 78.7843 20.9435C78.5038 21.3953 78.0093 21.666 77.4809 21.6571V21.9764H85.525V21.6571C85.1012 21.6486 84.7127 21.4171 84.5009 21.0468C84.2324 20.3577 84.1241 19.6156 84.1843 18.8777V10.6147C84.5322 10.3061 84.9246 10.0528 85.3481 9.86348C85.6741 9.69293 86.0333 9.59676 86.4002 9.58179C86.873 9.57104 87.316 9.81409 87.564 10.2203C87.9051 10.8887 88.0535 11.6402 87.9923 12.3894V18.8683C88.0037 19.4398 87.9695 20.0113 87.8898 20.5773C87.8576 20.8763 87.7186 21.1533 87.4988 21.3567C87.2625 21.5309 86.9811 21.632 86.6888 21.6477V21.967H94.2023V21.6477C93.7758 21.6489 93.3828 21.4147 93.1781 21.0374Z" fill="#54575A"/>
<path fill-rule="evenodd" clip-rule="evenodd" d="M99.5648 22.183C98.8945 22.0327 98.2614 21.9294 97.7028 21.8262C97.2155 21.7229 96.7201 21.6632 96.2224 21.6477C95.9978 21.6543 95.7738 21.6763 95.5521 21.7135C95.3702 21.7722 95.1928 21.8444 95.0214 21.9294V15.3566L95.31 15.2814C96.1401 16.6332 97.074 17.9173 98.1031 19.1219C98.7606 19.9249 99.5475 20.6106 100.431 21.1501C101.072 21.5316 101.8 21.7417 102.544 21.7604C103.081 21.8099 103.616 21.6447 104.034 21.3003C104.347 20.9785 104.512 20.5393 104.49 20.089C104.514 19.5203 104.281 18.9712 103.857 18.596C103.162 18.0749 102.393 17.6633 101.576 17.3754L99.5276 16.5585C98.2599 16.1209 97.0873 15.442 96.0735 14.5584C95.4147 13.8887 95.0579 12.9754 95.0866 12.0325C95.0611 11.1957 95.2955 10.3717 95.7569 9.6757C96.2385 8.94565 96.9079 8.36142 97.6935 7.98552C98.6431 7.54033 99.6817 7.32184 100.729 7.34702C101.352 7.33947 101.975 7.3866 102.591 7.48786C103.187 7.60054 103.754 7.66627 104.211 7.77895C104.667 7.89163 105.058 7.9198 105.309 7.9198C105.473 7.93985 105.639 7.93985 105.803 7.9198L106.119 7.81651L106.51 13.1499L106.259 13.2251C105.391 11.7405 104.322 10.3848 103.084 9.19681C102.328 8.46322 101.338 8.02401 100.291 7.95736C99.7791 7.92836 99.2747 8.09235 98.8759 8.41746C98.5027 8.72078 98.2924 9.1832 98.3079 9.66631C98.2827 10.189 98.4911 10.6956 98.8759 11.0466C99.4241 11.5031 100.057 11.8447 100.738 12.0513L103.168 12.8682C104.383 13.2007 105.507 13.8075 106.454 14.6429C107.121 15.3229 107.478 16.251 107.441 17.2063C107.502 18.6532 106.918 20.0517 105.849 21.0186C104.642 21.9865 103.126 22.4773 101.585 22.3989C100.898 22.3878 100.213 22.3187 99.5369 22.1924L99.5648 22.183Z" fill="#54575A"/>
<path fill-rule="evenodd" clip-rule="evenodd" d="M111.492 6.48315C112.296 6.50642 113.075 6.19629 113.647 5.625C114.218 5.05372 114.533 4.27116 114.517 3.45962C114.498 2.69649 114.199 1.96757 113.679 1.41263C113.125 0.78655 112.323 0.442299 111.492 0.473649C110.977 0.467851 110.472 0.61479 110.039 0.896192C109.588 1.17163 109.208 1.55143 108.931 2.00419C108.659 2.44066 108.511 2.94409 108.503 3.45962C108.51 4.27167 108.846 5.04544 109.434 5.6005C109.968 6.17083 110.714 6.49072 111.492 6.48315Z" fill="#54575A"/>
<path fill-rule="evenodd" clip-rule="evenodd" d="M140.381 21.075C140.117 20.4702 140.009 19.8083 140.065 19.1501V11.4316C140.065 8.7649 138.975 7.41277 136.825 7.41277C136.224 7.41625 135.628 7.51122 135.056 7.69446C134.429 7.9244 133.837 8.24037 133.296 8.63345C132.649 9.05997 132.027 9.52398 131.434 10.0231C131.351 9.35461 131.038 8.73666 130.549 8.27663C129.894 7.70868 129.048 7.41624 128.185 7.45972C127.215 7.46859 126.26 7.69978 125.392 8.13579C124.472 8.57058 123.629 9.1542 122.896 9.86352V7.41277C122.226 7.6569 121.481 7.94799 120.671 8.19212C119.861 8.43626 119.051 8.72735 118.241 8.98087C117.431 9.2344 116.761 9.40341 116.193 9.54426V9.86352C116.743 9.87384 117.249 10.1681 117.534 10.6429C117.85 11.5067 117.984 12.428 117.925 13.3471V19.1501C117.988 19.821 117.798 20.4914 117.394 21.028C117.06 21.3762 116.599 21.5699 116.118 21.5633C115.614 21.6034 115.119 21.4058 114.778 21.028C114.419 20.4725 114.258 19.8101 114.322 19.1501V7.30948C113.232 7.73202 112.096 8.12639 110.905 8.48321C109.713 8.84002 108.465 9.18745 107.227 9.47853V9.76023C107.906 9.76167 108.536 10.1167 108.894 10.6992C109.274 11.5865 109.443 12.5512 109.387 13.5162V18.2111C109.439 19.0961 109.306 19.9823 108.996 20.8121C108.732 21.3071 108.213 21.6088 107.655 21.5914V21.9107H124.237V21.5914C123.817 21.5469 123.44 21.3119 123.213 20.9529C122.954 20.3632 122.845 19.7178 122.896 19.075V10.4739C123.166 10.2065 123.482 9.99019 123.827 9.83535C124.168 9.66313 124.545 9.57617 124.926 9.58182C125.415 9.547 125.884 9.78018 126.155 10.1922C126.469 10.869 126.603 11.6163 126.546 12.3612V19.1219C126.6 19.7648 126.491 20.411 126.229 20.9999C126.01 21.3387 125.643 21.5516 125.243 21.5727V21.8919H132.858V21.5727C132.441 21.5478 132.056 21.3382 131.806 20.9999C131.568 20.3785 131.469 19.7114 131.518 19.0468V10.4363C131.826 10.1593 132.156 9.90808 132.505 9.68511C132.837 9.4848 133.216 9.37481 133.603 9.36586C134.078 9.35512 134.523 9.60249 134.767 10.0138C135.104 10.7204 135.249 11.5046 135.186 12.2861V19.0468C135.244 19.7109 135.162 20.3799 134.944 21.0093C134.709 21.3632 134.304 21.5636 133.883 21.5351V21.8543H141.517V21.5351C141.079 21.6586 140.613 21.4699 140.381 21.075Z" fill="#54575A"/>
<path d="M157 11.5067C156.839 10.6807 156.474 9.90887 155.939 9.26254C155.042 8.05623 153.626 7.35762 152.131 7.38457C151.344 7.36912 150.562 7.5261 149.841 7.84468C149.137 8.18119 148.482 8.61407 147.895 9.13108V7.37518C147.225 7.62871 146.452 7.87285 145.642 8.16393C144.832 8.45502 143.984 8.68976 143.137 8.94329C142.29 9.19681 141.545 9.40339 140.847 9.5818V9.86349C141.289 9.90974 141.719 10.0404 142.113 10.2485C142.457 10.5062 142.685 10.8914 142.746 11.3189C142.906 11.9824 142.978 12.6645 142.96 13.3471V23.2065C142.992 24.0189 142.907 24.8316 142.709 25.6196C142.608 26.0953 142.332 26.5147 141.936 26.7934C141.536 27.0262 141.092 27.1733 140.633 27.2253V27.5446H150.083V27.2253C149.449 27.2259 148.841 26.9686 148.398 26.5117C147.996 25.8133 147.82 25.0058 147.895 24.2018V21.5069C148.218 21.7541 148.58 21.9446 148.966 22.0703C149.515 22.2395 150.086 22.3249 150.66 22.3238C151.54 22.3229 152.412 22.1541 153.23 21.8262C154.03 21.4791 154.753 20.9711 155.352 20.3332C155.996 19.6074 156.487 18.7577 156.796 17.8355C157.17 16.7847 157.356 15.675 157.345 14.5584C157.348 13.5182 157.229 12.4813 156.991 11.4692L157 11.5067ZM151.247 19.9576C150.926 20.8109 150.139 21.3953 149.236 21.4506C148.935 21.4516 148.637 21.3909 148.36 21.2722C148.179 21.1795 148.012 21.0591 147.867 20.9153V9.64753C148.329 9.23453 148.909 8.9812 149.524 8.92451C150.26 8.92451 150.865 9.42217 151.386 10.3799C151.952 11.8531 152.193 13.4326 152.094 15.0091C152.094 17.319 151.842 18.9623 151.275 19.9576H151.247Z" fill="#54575A"/>
<path fill-rule="evenodd" clip-rule="evenodd" d="M157.177 21.6478C157.678 21.6546 158.147 21.3986 158.415 20.9717C158.732 20.2063 158.863 19.3758 158.797 18.5491V6.6334C158.879 5.62678 158.686 4.61672 158.238 3.71316C157.915 3.16243 157.318 2.83454 156.684 2.85868V2.53943C157.847 2.24834 159.086 1.96665 160.287 1.60044C161.488 1.23424 162.679 0.924375 163.741 0.539392V19.1219C163.687 19.7648 163.796 20.411 164.057 20.9999C164.302 21.3492 164.695 21.5616 165.119 21.5726V21.8919H157.177V21.6478Z" fill="#54575A"/>
<path d="M179.373 16.2767C178.703 18.0139 177.185 18.8683 174.885 18.8683C173.619 18.9283 172.387 18.4357 171.506 17.5162C170.604 16.4304 170.159 15.0316 170.268 13.6194H179.578V13.441C179.588 12.3161 179.263 11.214 178.647 10.2766C178.01 9.37658 177.158 8.65315 176.17 8.1733C173.82 7.11362 171.119 7.19314 168.834 8.38926C167.679 9.00538 166.714 9.92738 166.041 11.056C165.319 12.2682 164.951 13.6612 164.979 15.0748C164.951 16.3882 165.273 17.6852 165.91 18.8308C166.542 19.9265 167.46 20.8262 168.564 21.4318C169.742 22.0792 171.068 22.4031 172.409 22.3707C174.125 22.4504 175.813 21.9074 177.166 20.8402C178.494 19.6774 179.385 18.0893 179.69 16.3425L179.373 16.2767ZM170.835 9.26252C171.075 8.45758 171.799 7.89782 172.632 7.87282C172.888 7.87396 173.14 7.93504 173.368 8.05123C173.607 8.18411 173.804 8.38273 173.936 8.62401C174.081 8.85696 174.2 9.10582 174.29 9.36581C174.409 9.73698 174.481 10.1219 174.504 10.5114C174.504 10.9715 174.569 11.61 174.569 12.3893V13.103H170.23C170.234 12.3653 170.28 11.6285 170.37 10.8964C170.474 10.3259 170.629 9.7664 170.835 9.22496V9.26252Z" fill="#54575A"/>
</svg>
